<?xml version="1.0" encoding="UTF-8"?>
<svg xmlns="http://www.w3.org/2000/svg" xmlns:xlink="http://www.w3.org/1999/xlink" width="128px" height="128px" viewBox="0 0 128 128" version="1.1">
  <g id="surface1">
    <path style="stroke:none;fill-rule:nonzero;fill:rgb(81.960785%,54.11765%,58.431375%);fill-opacity:1;" d="M 76.089844 41.726562 C 77.667969 42.941406 78.570312 44.554688 78.902344 46.515625 C 78.917969 46.839844 78.925781 47.167969 78.925781 47.492188 C 78.925781 47.691406 78.925781 47.886719 78.925781 48.089844 C 78.925781 48.304688 78.925781 48.519531 78.925781 48.742188 C 78.925781 48.972656 78.925781 49.207031 78.925781 49.4375 C 78.929688 50.074219 78.929688 50.710938 78.929688 51.347656 C 78.929688 52.03125 78.929688 52.71875 78.933594 53.40625 C 78.933594 54.90625 78.933594 56.40625 78.9375 57.910156 C 78.9375 58.847656 78.9375 59.785156 78.9375 60.722656 C 78.941406 63.320312 78.941406 65.914062 78.941406 68.511719 C 78.941406 68.761719 78.941406 68.761719 78.941406 69.015625 C 78.941406 69.265625 78.941406 69.265625 78.941406 69.519531 C 78.941406 69.859375 78.941406 70.195312 78.941406 70.535156 C 78.941406 70.703125 78.941406 70.867188 78.941406 71.042969 C 78.945312 73.753906 78.945312 76.464844 78.949219 79.175781 C 78.953125 81.960938 78.957031 84.746094 78.957031 87.53125 C 78.957031 89.097656 78.957031 90.660156 78.960938 92.222656 C 78.964844 93.554688 78.964844 94.886719 78.964844 96.21875 C 78.964844 96.894531 78.964844 97.574219 78.964844 98.253906 C 78.96875 98.875 78.96875 99.5 78.964844 100.121094 C 78.964844 100.453125 78.96875 100.78125 78.96875 101.109375 C 78.957031 103.351562 78.527344 105.3125 77.011719 107.019531 C 75.554688 108.433594 73.664062 109.125 71.644531 109.097656 C 69.777344 108.917969 68.078125 108.144531 66.800781 106.765625 C 65.335938 104.925781 65.066406 103.003906 65.074219 100.722656 C 65.074219 100.492188 65.074219 100.257812 65.070312 100.027344 C 65.070312 99.390625 65.070312 98.753906 65.070312 98.117188 C 65.070312 97.429688 65.066406 96.738281 65.066406 96.050781 C 65.0625 94.707031 65.0625 93.359375 65.0625 92.011719 C 65.0625 90.917969 65.0625 89.820312 65.058594 88.726562 C 65.058594 85.621094 65.054688 82.511719 65.054688 79.40625 C 65.054688 79.238281 65.054688 79.070312 65.054688 78.898438 C 65.054688 78.730469 65.054688 78.5625 65.054688 78.390625 C 65.054688 75.671875 65.054688 72.957031 65.046875 70.242188 C 65.042969 67.453125 65.039062 64.660156 65.039062 61.871094 C 65.042969 60.304688 65.039062 58.738281 65.035156 57.171875 C 65.035156 55.839844 65.03125 54.507812 65.035156 53.171875 C 65.035156 52.492188 65.035156 51.8125 65.03125 51.132812 C 65.03125 50.511719 65.03125 49.886719 65.035156 49.265625 C 65.035156 48.933594 65.03125 48.605469 65.027344 48.277344 C 65.046875 46.027344 65.625 44.074219 67.144531 42.390625 C 69.578125 40.035156 73.320312 39.914062 76.089844 41.726562 Z M 76.089844 41.726562 "/>
    <path style="stroke:none;fill-rule:nonzero;fill:rgb(72.549021%,55.686277%,64.313728%);fill-opacity:1;" d="M 28.542969 35.527344 C 30.109375 36.730469 31.042969 38.355469 31.355469 40.3125 C 31.371094 40.800781 31.378906 41.28125 31.378906 41.769531 C 31.378906 41.914062 31.378906 42.0625 31.378906 42.210938 C 31.382812 42.703125 31.382812 43.191406 31.382812 43.683594 C 31.382812 44.035156 31.382812 44.386719 31.382812 44.738281 C 31.386719 45.691406 31.386719 46.648438 31.386719 47.601562 C 31.390625 48.199219 31.390625 48.796875 31.390625 49.394531 C 31.394531 51.261719 31.394531 53.132812 31.394531 55 C 31.394531 57.15625 31.398438 59.3125 31.402344 61.46875 C 31.40625 63.136719 31.410156 64.804688 31.410156 66.472656 C 31.410156 67.46875 31.410156 68.460938 31.414062 69.457031 C 31.417969 70.394531 31.417969 71.332031 31.414062 72.269531 C 31.414062 72.609375 31.417969 72.953125 31.417969 73.296875 C 31.429688 75.714844 31.339844 77.847656 29.976562 79.933594 C 29.878906 80.085938 29.785156 80.234375 29.683594 80.386719 C 28.648438 81.449219 27.453125 82.171875 26.011719 82.519531 C 25.8125 82.570312 25.8125 82.570312 25.605469 82.621094 C 23.710938 82.921875 21.746094 82.398438 20.199219 81.292969 C 18.667969 80 17.738281 78.285156 17.53125 76.285156 C 17.46875 75.226562 17.476562 74.167969 17.484375 73.105469 C 17.480469 72.75 17.480469 72.398438 17.480469 72.042969 C 17.476562 71.085938 17.476562 70.125 17.480469 69.167969 C 17.480469 68.164062 17.480469 67.15625 17.476562 66.152344 C 17.476562 64.464844 17.480469 62.773438 17.480469 61.085938 C 17.484375 59.136719 17.484375 57.191406 17.480469 55.242188 C 17.476562 53.566406 17.476562 51.886719 17.480469 50.210938 C 17.480469 49.210938 17.480469 48.210938 17.476562 47.210938 C 17.476562 46.273438 17.476562 45.332031 17.480469 44.390625 C 17.480469 44.046875 17.480469 43.707031 17.480469 43.363281 C 17.46875 40.636719 17.6875 38.304688 19.59375 36.191406 C 22.03125 33.835938 25.769531 33.710938 28.542969 35.527344 Z M 28.542969 35.527344 "/>
    <path style="stroke:none;fill-rule:nonzero;fill:rgb(84.705883%,48.235294%,55.29412%);fill-opacity:1;" d="M 60.242188 52.753906 C 61.808594 53.957031 62.742188 55.582031 63.050781 57.539062 C 63.070312 58.019531 63.078125 58.492188 63.078125 58.96875 C 63.078125 59.113281 63.078125 59.257812 63.078125 59.40625 C 63.078125 59.886719 63.078125 60.367188 63.082031 60.847656 C 63.082031 61.191406 63.082031 61.535156 63.082031 61.878906 C 63.085938 62.816406 63.085938 63.753906 63.085938 64.691406 C 63.085938 65.277344 63.089844 65.863281 63.089844 66.445312 C 63.089844 68.28125 63.09375 70.113281 63.09375 71.949219 C 63.09375 74.0625 63.097656 76.175781 63.101562 78.289062 C 63.105469 79.925781 63.109375 81.558594 63.109375 83.195312 C 63.109375 84.171875 63.109375 85.148438 63.113281 86.125 C 63.117188 87.042969 63.117188 87.960938 63.113281 88.878906 C 63.113281 89.214844 63.113281 89.550781 63.117188 89.886719 C 63.128906 92.546875 63.011719 94.941406 61.164062 97.027344 C 59.707031 98.441406 57.8125 99.132812 55.796875 99.105469 C 53.925781 98.925781 52.230469 98.152344 50.949219 96.773438 C 49.71875 95.222656 49.214844 93.480469 49.222656 91.53125 C 49.222656 91.386719 49.222656 91.242188 49.222656 91.09375 C 49.21875 90.613281 49.21875 90.128906 49.21875 89.648438 C 49.21875 89.304688 49.21875 88.957031 49.21875 88.609375 C 49.214844 87.671875 49.214844 86.734375 49.214844 85.796875 C 49.210938 85.210938 49.210938 84.621094 49.210938 84.035156 C 49.207031 81.984375 49.207031 79.933594 49.207031 77.886719 C 49.207031 75.976562 49.203125 74.070312 49.199219 72.164062 C 49.191406 70.523438 49.191406 68.882812 49.191406 67.242188 C 49.191406 66.261719 49.191406 65.285156 49.1875 64.308594 C 49.183594 63.386719 49.183594 62.464844 49.1875 61.542969 C 49.1875 61.207031 49.1875 60.871094 49.183594 60.535156 C 49.167969 57.828125 49.398438 55.515625 51.292969 53.417969 C 53.730469 51.0625 57.46875 50.9375 60.242188 52.753906 Z M 60.242188 52.753906 "/>
    <path style="stroke:none;fill-rule:nonzero;fill:rgb(65.490198%,62.7451%,70.19608%);fill-opacity:1;" d="M 107.789062 30.011719 C 109.359375 31.222656 110.28125 32.84375 110.601562 34.800781 C 110.617188 35.226562 110.625 35.652344 110.625 36.078125 C 110.625 36.207031 110.625 36.335938 110.625 36.464844 C 110.628906 36.890625 110.628906 37.316406 110.628906 37.742188 C 110.628906 38.046875 110.628906 38.355469 110.628906 38.660156 C 110.632812 39.488281 110.632812 40.320312 110.632812 41.148438 C 110.636719 41.667969 110.636719 42.1875 110.636719 42.707031 C 110.640625 44.332031 110.640625 45.960938 110.640625 47.585938 C 110.640625 49.460938 110.644531 51.332031 110.648438 53.207031 C 110.652344 54.65625 110.65625 56.109375 110.65625 57.558594 C 110.65625 58.425781 110.65625 59.289062 110.660156 60.15625 C 110.664062 60.96875 110.664062 61.785156 110.660156 62.597656 C 110.660156 62.898438 110.664062 63.195312 110.664062 63.492188 C 110.679688 66.046875 110.472656 68.335938 108.710938 70.328125 C 107.253906 71.738281 105.359375 72.429688 103.34375 72.402344 C 101.472656 72.222656 99.777344 71.449219 98.496094 70.074219 C 97.3125 68.582031 96.761719 66.871094 96.773438 64.976562 C 96.769531 64.851562 96.769531 64.722656 96.769531 64.589844 C 96.769531 64.164062 96.769531 63.738281 96.769531 63.3125 C 96.765625 63.003906 96.765625 62.695312 96.765625 62.390625 C 96.761719 61.558594 96.761719 60.726562 96.761719 59.894531 C 96.761719 59.371094 96.757812 58.851562 96.757812 58.332031 C 96.753906 56.511719 96.753906 54.695312 96.753906 52.875 C 96.753906 51.183594 96.75 49.492188 96.746094 47.800781 C 96.742188 46.347656 96.738281 44.890625 96.738281 43.4375 C 96.738281 42.566406 96.738281 41.699219 96.734375 40.832031 C 96.730469 40.015625 96.730469 39.199219 96.734375 38.382812 C 96.734375 38.082031 96.734375 37.785156 96.730469 37.488281 C 96.714844 34.910156 97.050781 32.660156 98.839844 30.675781 C 101.277344 28.320312 105.019531 28.199219 107.789062 30.011719 Z M 107.789062 30.011719 "/>
    <path style="stroke:none;fill-rule:nonzero;fill:rgb(80.784315%,48.627451%,58.039218%);fill-opacity:1;" d="M 91.941406 48.273438 C 93.511719 49.484375 94.433594 51.101562 94.75 53.0625 C 94.765625 53.472656 94.773438 53.886719 94.773438 54.300781 C 94.777344 54.425781 94.777344 54.546875 94.777344 54.675781 C 94.777344 55.085938 94.777344 55.496094 94.777344 55.910156 C 94.78125 56.203125 94.78125 56.5 94.78125 56.796875 C 94.785156 57.597656 94.785156 58.398438 94.785156 59.203125 C 94.785156 59.703125 94.785156 60.207031 94.789062 60.707031 C 94.789062 62.28125 94.792969 63.851562 94.792969 65.425781 C 94.792969 67.234375 94.796875 69.046875 94.800781 70.859375 C 94.804688 72.261719 94.804688 73.664062 94.808594 75.0625 C 94.808594 75.902344 94.808594 76.738281 94.8125 77.574219 C 94.8125 78.359375 94.8125 79.148438 94.8125 79.9375 C 94.8125 80.222656 94.8125 80.511719 94.816406 80.800781 C 94.828125 83.324219 94.601562 85.585938 92.863281 87.554688 C 91.40625 88.964844 89.511719 89.65625 87.496094 89.628906 C 85.625 89.449219 83.929688 88.675781 82.648438 87.300781 C 81.46875 85.816406 80.929688 84.125 80.921875 82.246094 C 80.921875 82.121094 80.921875 81.996094 80.921875 81.867188 C 80.917969 81.457031 80.917969 81.046875 80.917969 80.632812 C 80.917969 80.335938 80.917969 80.039062 80.914062 79.742188 C 80.914062 78.9375 80.910156 78.132812 80.910156 77.328125 C 80.910156 76.828125 80.910156 76.324219 80.910156 75.820312 C 80.90625 74.0625 80.90625 72.304688 80.90625 70.542969 C 80.90625 68.910156 80.902344 67.273438 80.894531 65.640625 C 80.890625 64.234375 80.890625 62.824219 80.890625 61.417969 C 80.890625 60.578125 80.890625 59.742188 80.886719 58.902344 C 80.882812 58.113281 80.882812 57.324219 80.886719 56.53125 C 80.886719 56.246094 80.882812 55.957031 80.882812 55.667969 C 80.863281 53.121094 81.222656 50.894531 82.992188 48.9375 C 85.429688 46.582031 89.167969 46.460938 91.941406 48.273438 Z M 91.941406 48.273438 "/>
    <path style="stroke:none;fill-rule:nonzero;fill:rgb(80.784315%,48.235294%,57.647061%);fill-opacity:1;" d="M 12.695312 48.964844 C 14.265625 50.171875 15.183594 51.792969 15.503906 53.75 C 15.519531 54.140625 15.527344 54.527344 15.527344 54.917969 C 15.53125 55.035156 15.53125 55.148438 15.53125 55.269531 C 15.53125 55.652344 15.53125 56.039062 15.53125 56.425781 C 15.535156 56.699219 15.535156 56.976562 15.535156 57.253906 C 15.539062 58.007812 15.539062 58.757812 15.539062 59.507812 C 15.539062 59.980469 15.539062 60.449219 15.542969 60.917969 C 15.542969 62.390625 15.546875 63.863281 15.546875 65.335938 C 15.546875 67.035156 15.550781 68.730469 15.554688 70.425781 C 15.558594 71.742188 15.558594 73.054688 15.558594 74.367188 C 15.558594 75.152344 15.5625 75.933594 15.566406 76.71875 C 15.566406 77.457031 15.566406 78.195312 15.566406 78.933594 C 15.566406 79.203125 15.566406 79.472656 15.570312 79.742188 C 15.582031 82.226562 15.316406 84.425781 13.613281 86.347656 C 12.15625 87.761719 10.265625 88.453125 8.25 88.425781 C 6.378906 88.246094 4.683594 87.472656 3.402344 86.09375 C 1.828125 84.113281 1.671875 82.035156 1.671875 79.601562 C 1.671875 79.324219 1.671875 79.042969 1.667969 78.765625 C 1.667969 78.011719 1.664062 77.261719 1.664062 76.507812 C 1.664062 76.035156 1.664062 75.5625 1.664062 75.09375 C 1.660156 73.445312 1.660156 71.796875 1.660156 70.148438 C 1.660156 68.617188 1.65625 67.085938 1.648438 65.554688 C 1.644531 64.234375 1.644531 62.917969 1.644531 61.597656 C 1.644531 60.8125 1.644531 60.027344 1.640625 59.242188 C 1.636719 58.5 1.636719 57.761719 1.636719 57.019531 C 1.640625 56.75 1.636719 56.480469 1.636719 56.210938 C 1.617188 53.714844 2.027344 51.53125 3.746094 49.628906 C 6.183594 47.273438 9.921875 47.148438 12.695312 48.964844 Z M 12.695312 48.964844 "/>
    <path style="stroke:none;fill-rule:nonzero;fill:rgb(70.19608%,57.254905%,65.882355%);fill-opacity:1;" d="M 44.390625 41.554688 C 45.972656 42.773438 46.863281 44.378906 47.203125 46.34375 C 47.21875 46.609375 47.226562 46.882812 47.226562 47.152344 C 47.226562 47.308594 47.230469 47.464844 47.230469 47.628906 C 47.230469 47.886719 47.230469 47.886719 47.230469 48.144531 C 47.230469 48.417969 47.230469 48.417969 47.234375 48.695312 C 47.234375 49.296875 47.238281 49.898438 47.238281 50.5 C 47.238281 50.917969 47.238281 51.335938 47.242188 51.753906 C 47.242188 52.632812 47.242188 53.511719 47.246094 54.390625 C 47.246094 55.511719 47.25 56.632812 47.253906 57.753906 C 47.257812 58.621094 47.257812 59.484375 47.257812 60.351562 C 47.257812 60.765625 47.261719 61.175781 47.261719 61.589844 C 47.265625 62.171875 47.265625 62.75 47.265625 63.332031 C 47.265625 63.5 47.269531 63.667969 47.269531 63.84375 C 47.257812 65.695312 46.84375 67.355469 45.824219 68.910156 C 45.730469 69.058594 45.632812 69.207031 45.535156 69.363281 C 44.5 70.425781 43.304688 71.144531 41.863281 71.492188 C 41.660156 71.542969 41.660156 71.542969 41.453125 71.59375 C 39.710938 71.871094 37.875 71.453125 36.402344 70.507812 C 34.738281 69.261719 33.761719 67.699219 33.421875 65.636719 C 33.292969 64.1875 33.324219 62.730469 33.328125 61.277344 C 33.328125 60.851562 33.328125 60.429688 33.328125 60.003906 C 33.328125 59.117188 33.328125 58.234375 33.332031 57.347656 C 33.335938 56.21875 33.332031 55.085938 33.328125 53.957031 C 33.328125 53.082031 33.328125 52.207031 33.328125 51.332031 C 33.328125 50.917969 33.328125 50.5 33.328125 50.082031 C 33.316406 47.113281 33.351562 44.539062 35.445312 42.21875 C 37.878906 39.863281 41.621094 39.742188 44.390625 41.554688 Z M 44.390625 41.554688 "/>
    <path style="stroke:none;fill-rule:nonzero;fill:rgb(58.431375%,71.372551%,76.47059%);fill-opacity:1;" d="M 123.636719 28.636719 C 125.21875 29.851562 126.109375 31.460938 126.449219 33.421875 C 126.464844 33.683594 126.472656 33.949219 126.472656 34.210938 C 126.476562 34.363281 126.476562 34.515625 126.476562 34.675781 C 126.476562 34.925781 126.476562 34.925781 126.476562 35.179688 C 126.480469 35.441406 126.480469 35.441406 126.480469 35.714844 C 126.480469 36.296875 126.484375 36.882812 126.484375 37.464844 C 126.484375 37.871094 126.488281 38.277344 126.488281 38.6875 C 126.488281 39.539062 126.492188 40.394531 126.492188 41.25 C 126.492188 42.339844 126.496094 43.429688 126.5 44.519531 C 126.503906 45.359375 126.503906 46.203125 126.503906 47.042969 C 126.503906 47.445312 126.507812 47.847656 126.507812 48.25 C 126.539062 53.792969 126.539062 53.792969 124.558594 56.027344 C 123.101562 57.441406 121.210938 58.132812 119.191406 58.105469 C 117.324219 57.925781 115.625 57.152344 114.347656 55.773438 C 113.015625 54.097656 112.617188 52.289062 112.617188 50.199219 C 112.617188 50.019531 112.613281 49.84375 112.613281 49.660156 C 112.609375 49.074219 112.609375 48.488281 112.609375 47.902344 C 112.609375 47.492188 112.609375 47.082031 112.605469 46.671875 C 112.605469 45.8125 112.601562 44.953125 112.605469 44.097656 C 112.605469 43 112.597656 41.90625 112.59375 40.8125 C 112.589844 39.964844 112.589844 39.117188 112.589844 38.273438 C 112.589844 37.867188 112.585938 37.464844 112.585938 37.0625 C 112.566406 34.121094 112.621094 31.59375 114.691406 29.296875 C 117.125 26.945312 120.867188 26.820312 123.636719 28.636719 Z M 123.636719 28.636719 "/>
    <path style="stroke:none;fill-rule:nonzero;fill:rgb(92.54902%,65.490198%,54.509807%);fill-opacity:1;" d="M 22.914062 101.640625 C 23.140625 101.753906 23.367188 101.871094 23.601562 101.988281 C 23.261719 101.988281 22.917969 101.988281 22.566406 101.988281 C 22.683594 101.871094 22.796875 101.757812 22.914062 101.640625 Z M 22.914062 101.640625 "/>
  </g>
</svg>
